<svg width="24" height="24" viewBox="0 0 24 24" fill="none" xmlns="http://www.w3.org/2000/svg">
<path d="M12.5259 7.82872C12.5259 5.23451 10.4229 3.13149 7.82872 3.13149C5.23451 3.13149 3.13149 5.23451 3.13149 7.82872C3.13149 10.4229 5.23451 12.5259 7.82872 12.5259C10.4229 12.5259 12.5259 10.4229 12.5259 7.82872ZM15.6574 7.82872C15.6574 12.1524 12.1524 15.6574 7.82872 15.6574C3.50504 15.6574 0 12.1524 0 7.82872C0 3.50504 3.50504 0 7.82872 0C12.1524 0 15.6574 3.50504 15.6574 7.82872Z" fill="#1F6F43"/>
<path d="M16.8941 9.75519C17.1963 8.94524 18.0982 8.5337 18.9083 8.83572C20.1415 9.29555 21.2389 10.0587 22.099 11.0549C22.9591 12.0512 23.5539 13.2488 23.8288 14.536C24.1037 15.8232 24.0499 17.1591 23.6718 18.4198C23.2936 19.6806 22.6038 20.8265 21.6657 21.75C20.7277 22.6735 19.5715 23.3457 18.3049 23.7042C17.0384 24.0626 15.7018 24.0959 14.4191 23.801C13.1362 23.5061 11.9483 22.8917 10.9655 22.0161C9.98266 21.1405 9.23677 20.0312 8.79626 18.7908C8.50687 17.976 8.93249 17.0813 9.74732 16.7919C10.5621 16.5025 11.4568 16.9282 11.7463 17.7429C12.0106 18.4872 12.4583 19.1533 13.048 19.6787C13.6377 20.204 14.3507 20.5721 15.1204 20.749C15.8901 20.926 16.6927 20.906 17.4527 20.6909C18.2125 20.4758 18.9062 20.0727 19.469 19.5187C20.0317 18.9646 20.4449 18.2771 20.6718 17.5207C20.8987 16.7643 20.9315 15.9628 20.7666 15.1904C20.6017 14.4182 20.2449 13.6996 19.7289 13.1018C19.2128 12.5039 18.5536 12.0454 17.8135 11.7695C17.0036 11.4672 16.5921 10.5653 16.8941 9.75519Z" fill="#1F6F43"/>
<path d="M6.78489 9.91637V6.78489C6.2084 6.78489 5.74106 6.31755 5.74106 5.74106C5.74106 5.16457 6.2084 4.69723 6.78489 4.69723H7.82872L7.93575 4.70233C8.46197 4.75591 8.87254 5.20069 8.87254 5.74106V9.91637C8.87254 10.4929 8.40521 10.9602 7.82872 10.9602C7.25222 10.9602 6.78489 10.4929 6.78489 9.91637Z" fill="#1F6F43"/>
<path d="M16.1877 13.2233C16.5982 12.8186 17.259 12.8231 17.6637 13.2335L18.3946 13.9746C18.7972 14.383 18.7949 15.0399 18.3895 15.4455L15.4456 18.3895C15.038 18.7969 14.3771 18.7969 13.9695 18.3895C13.5619 17.9819 13.562 17.3211 13.9695 16.9134L16.1795 14.7024L16.1775 14.6994C15.7728 14.2889 15.7772 13.6281 16.1877 13.2233Z" fill="#1F6F43"/>
</svg>
